<svg width="13" height="20" viewBox="0 0 13 20" fill="none" xmlns="http://www.w3.org/2000/svg">
<path fill-rule="evenodd" clip-rule="evenodd" d="M12.5 6.462C12.5 2.9465 9.797 0 6.255 0C2.713 0 0 2.9485 0 6.465C0 7.625 0.162 8.5 0.7115 9.5H0.701L6.0485 19.8105C6.2495 20.086 6.4605 19.7945 6.4605 19.7945C6.28 20.065 11.808 9.5 11.808 9.5H11.8035C12.3475 8.5 12.5 7.623 12.5 6.462ZM3.3755 6.264C3.3755 4.6055 4.665 3.262 6.255 3.262C7.8445 3.262 9.135 4.6055 9.135 6.264C9.135 7.9225 7.8445 9.2665 6.255 9.2665C4.665 9.2665 3.3755 7.923 3.3755 6.264V6.264Z" fill="#FD4701"/>
</svg>
