<svg width="15" height="14" viewBox="0 0 15 14" fill="none" xmlns="http://www.w3.org/2000/svg">
<path d="M3.1 1.5C3.1 2.32843 2.40604 3 1.55 3C0.693959 3 0 2.32843 0 1.5C0 0.671573 0.693959 0 1.55 0C2.40604 0 3.1 0.671573 3.1 1.5Z" fill="white"/>
<path d="M0.0500488 14H3.05005V4H0.0500488V14Z" fill="white"/>
<path d="M11.05 14H14.05V8.353C14.05 7.002 13.733 6.04 13.096 5.323C12.463 4.607 11.634 4.322 10.609 4.322C9.26105 4.322 8.27805 5 7.66305 6H7.60105L7.41805 4H5.05005C5.09005 5 5.05005 14 5.05005 14H8.05005V7.738C8.29805 6.961 8.79205 6.573 9.57105 6.573C10.554 6.573 11.05 7.266 11.05 8.658V14Z" fill="white"/>
</svg>
