<svg width="16" height="16" viewBox="0 0 16 16" fill="none" xmlns="http://www.w3.org/2000/svg">
<path d="M7.72354 3.18571C8.94504 3.18571 10.096 3.72721 10.9395 4.57371V4.57621C10.9395 4.16971 11.213 3.86221 11.591 3.86221H11.687C12.2835 3.86221 12.403 4.42471 12.403 4.60221L12.4055 10.9197C12.364 11.3337 12.833 11.5477 13.0935 11.2817C14.106 10.2402 15.3195 5.92221 12.463 3.42221C9.79903 1.08872 6.22354 1.47422 4.32254 2.78421C2.30204 4.18022 1.01054 7.26371 2.26504 10.1617C3.63504 13.3212 7.55153 14.2637 9.88253 13.3237C11.0625 12.8472 11.6065 14.4402 10.38 14.9617C8.53153 15.7502 3.38003 15.6697 0.974035 11.5032C-0.651465 8.68871 -0.565465 3.73771 3.74753 1.17271C7.04403 -0.790785 11.3935 -0.246785 14.0155 2.49072C16.7555 5.35522 16.597 10.7147 13.922 12.7982C12.7105 13.7457 10.9115 12.8242 10.9245 11.4437L10.911 10.9937C10.0675 11.8292 8.94504 12.3192 7.72354 12.3192C5.30703 12.3192 3.17954 10.1912 3.17954 7.77722C3.17954 5.33721 5.30703 3.18671 7.72354 3.18671V3.18571ZM10.763 7.60271C10.6715 5.83421 9.35904 4.76921 7.77304 4.76921H7.71304C5.88504 4.76921 4.86953 6.20921 4.86953 7.84171C4.86953 9.67221 6.09603 10.8282 7.70553 10.8282C9.50203 10.8282 10.6815 9.51371 10.7675 7.95871L10.763 7.60271Z" fill="#FD4701"/>
</svg>
