<svg width="17" height="13" viewBox="0 0 17 13" fill="none" xmlns="http://www.w3.org/2000/svg">
<path d="M16.004 1.53701C15.4058 1.80349 14.7705 1.97748 14.12 2.05301C14.8052 1.64234 15.3183 0.997125 15.564 0.237007C14.9195 0.618896 14.2148 0.888405 13.48 1.03401C13.1725 0.706757 12.8011 0.446129 12.3888 0.268267C11.9765 0.0904061 11.532 -0.000899687 11.083 6.68232e-06C10.5884 -0.00051046 10.1001 0.110842 9.65456 0.325731C9.20906 0.540619 8.81793 0.853479 8.51044 1.2409C8.20294 1.62832 7.98705 2.08026 7.87892 2.56291C7.77078 3.04557 7.7732 3.54642 7.886 4.02801C6.58071 3.96242 5.30379 3.62307 4.13816 3.03198C2.97252 2.44089 1.94422 1.61128 1.12 0.597007C0.700145 1.31935 0.571397 2.17456 0.759972 2.9885C0.948547 3.80244 1.44026 4.5139 2.135 4.97801C1.61365 4.96115 1.10372 4.82099 0.647 4.56901V4.61001C0.646818 5.36819 0.909063 6.10307 1.3892 6.68984C1.86934 7.27662 2.53778 7.67913 3.281 7.82901C2.79682 7.96098 2.28887 7.98048 1.796 7.88601C2.00635 8.53786 2.41474 9.10789 2.96428 9.51674C3.51383 9.92558 4.17719 10.1529 4.862 10.167C4.18078 10.7022 3.40068 11.0977 2.56638 11.3309C1.73208 11.5641 0.85997 11.6304 0 11.526C1.50137 12.4913 3.24912 13.0034 5.034 13.001C11.071 13.001 14.375 7.99801 14.375 3.66001C14.375 3.51601 14.372 3.37601 14.366 3.23501C15.0092 2.77235 15.5638 2.19749 16.003 1.53801L16.004 1.53701Z" fill="white"/>
</svg>
